<?xml version="1.0" encoding="utf-8"?>
<!-- Generator: Adobe Illustrator 16.0.4, SVG Export Plug-In . SVG Version: 6.00 Build 0)  -->
<!DOCTYPE svg PUBLIC "-//W3C//DTD SVG 1.1//EN" "http://www.w3.org/Graphics/SVG/1.1/DTD/svg11.dtd">
<svg version="1.1" id="Layer_1" xmlns="http://www.w3.org/2000/svg" xmlns:xlink="http://www.w3.org/1999/xlink" x="0px" y="0px"
	 width="48px" height="48px" viewBox="0 0 48 48" enable-background="new 0 0 48 48" xml:space="preserve">
<path fill="#FFFFFF" d="M24,4C12.95,4,4,12.95,4,24s8.95,20,20,20s20-8.95,20-20S35.05,4,24,4z M24,10c3.311,0,6,2.69,6,6
	c0,3.32-2.689,6-6,6c-3.31,0-6-2.68-6-6C18,12.69,20.69,10,24,10z M24,38.4c-5.01,0-9.41-2.561-12-6.44c0.05-3.97,8.01-6.16,12-6.16
	s11.939,2.19,12,6.16C33.41,35.84,29.01,38.4,24,38.4z"/>
</svg>
